# xmcd
#
# Track frame offsets:
#	150
#	15839
#	30347
#	48087
#	66589
#	83518
#	99055
#	115569
#	128345
#	146039
#	167831
#	182181
#	199152
#	216391
#	235687
#	252255
#	267459
#	283939
#	303774
#	320838
#
# Disc length: 4452 seconds
#
# Revision: 0
# Processed by: cddbd v1.5.2PL0 Copyright (c) Steve Scherf et al.
# Submitted via: EasyCDDAExtractor 5.0.5.1
#
DISCID=0f116214
DTITLE=Various Artist - Hott Country # 95
DYEAR=1900
DGENRE=Country
TTITLE0=Pat Green  - Guy Like Me
TTITLE1=Doc Walker - Get Up
TTITLE2=Beverly Mahood - The First Day (You Wake Up Alone)
TTITLE3=Craig Young Feet/ Terri Clark - You Can't Take It With You
TTITLE4=Tracy Lawrence - Paint Me A Birmingham
TTITLE5=Dean Tuftin - In Her Eyes
TTITLE6=Jake Mathews - Try Again Tomorrow
TTITLE7=Steve Fox - Land Of The Loved
TTITLE8=Toby Keith - Whiskey Girl
TTITLE9=Keith Urban - You'll Think Of Me
TTITLE10=Billy Curington - I Got A Feelin'
TTITLE11=Gil Grand - Run
TTITLE12=Clint Black - Spend My Time
TTITLE13=Cross Canadian Ragwood - Constantly
TTITLE14=Lyle Lovett - My Baby Don't Tolerate
TTITLE15=Sonya Isaacs - No Regrets Yet
TTITLE16=Ennis Sisters - Can't Be The Same
TTITLE17=Rodney Crowell - Earthbound
TTITLE18=Rick Tippe - Back To The Country
TTITLE19=Shania Twain  - Up
EXTD=
EXTT0=
EXTT1=
EXTT2=
EXTT3=
EXTT4=
EXTT5=
EXTT6=
EXTT7=
EXTT8=
EXTT9=
EXTT10=
EXTT11=
EXTT12=
EXTT13=
EXTT14=
EXTT15=
EXTT16=
EXTT17=
EXTT18=
EXTT19=
PLAYORDER=
